<svg width="197" height="50" viewBox="0 0 197 50" fill="none" xmlns="http://www.w3.org/2000/svg">
<path d="M112.411 38.5148C110.863 41.4157 111.245 45.477 113.667 47.7521C115.833 49.8642 119.077 50.4404 121.899 49.6774C123.409 49.2681 124.748 48.5051 125.9 47.4958V44.5948C125.594 44.6386 125.282 44.6405 124.969 44.5889C123.049 44.3803 121.839 42.4072 121.569 40.5673C121.348 38.6817 121.474 36.5557 122.674 35.0178C123.546 33.9488 124.688 33.2474 125.9 32.6832V30.5233C122.674 31.8506 119.431 33.1481 116.423 34.9721C114.915 35.906 113.285 36.8577 112.411 38.5148Z" fill="#FFF8EE"/>
<path d="M141.889 45.6022C141.281 45.7632 140.568 45.5863 140.163 45.0757C139.588 44.3922 139.555 43.4305 139.549 42.5702C139.557 38.0817 139.547 33.5951 139.553 29.1086C139.569 27.1674 139.41 25.1924 138.734 23.3664C137.502 19.776 134.438 16.9804 130.874 16.118C127.343 15.2537 123.474 15.4107 120.16 17.0261C116.53 18.9355 113.893 22.4862 112.405 26.3726C112.33 26.5693 112.425 26.7899 112.614 26.8674C112.922 26.9945 113.228 27.1257 113.532 27.2588C113.711 27.3363 113.911 27.2568 113.997 27.076C114.513 25.9772 115.095 24.9043 115.866 23.9744C117.259 22.2398 119.375 21.1033 121.569 21.145C123.218 21.1132 124.955 21.6 126.135 22.8538C127.798 24.6082 128.32 27.1773 128.183 29.5676V31.7294C128.183 35.6218 128.181 39.5123 128.183 43.4047C128.183 43.8458 128.183 44.3147 128.183 44.716C128.183 44.7677 128.14 47.2673 128.173 47.303C128.173 47.303 129.475 47.2693 130.542 48.1415C132.477 49.6019 134.961 50.1921 137.323 49.9457C140.216 49.7072 142.855 47.8534 144.433 45.3698C144.089 45.0022 143.743 44.6326 143.411 44.2571C142.976 44.7816 142.563 45.4035 141.889 45.6022Z" fill="#FFF8EE"/>
<path d="M3.41952 46.7427C2.54129 47.4044 1.41867 47.4541 0.36361 47.4779C0.164916 47.4819 0.00596082 47.6528 0.00596082 47.8594V48.835C0.00596082 49.0456 0.170877 49.2165 0.373544 49.2165H20.2111C20.4138 49.2165 20.5787 49.0456 20.5787 48.833C20.5787 48.5071 20.5787 48.1833 20.5787 47.8574C20.5787 47.6488 20.4178 47.4779 20.2171 47.4759C19.1302 47.458 17.9619 47.3925 17.0877 46.6752C16.4042 45.8904 16.3167 44.7618 16.273 43.7544C16.275 38.4413 16.273 33.1322 16.273 27.8191V26.0746C16.273 19.3766 16.273 12.6807 16.273 5.98467V3.99177C10.8745 3.98978 5.49985 3.99376 0.0993469 3.99177C0.0357649 5.04485 0.0615951 4.60971 0 5.66278C1.09878 5.77604 2.28697 5.72041 3.26851 6.33238C4.15072 7.04172 4.24211 8.3233 4.31166 9.39227C4.30967 20.9205 4.31563 32.4527 4.30768 43.9829C4.2143 44.9406 4.13085 46.0414 3.41952 46.7427Z" fill="#FFF8EE"/>
<path d="M46.1168 47.4958C44.8094 47.4163 43.5716 46.697 42.904 45.5009C40.5594 41.7853 38.638 37.8015 36.4762 33.9727C34.7794 30.6764 32.099 27.8112 28.6715 26.5197C31.795 25.4825 34.8668 23.8413 37.0028 21.1887C39.8043 17.4751 39.2083 11.4766 35.5741 8.57364C31.646 5.35878 26.5833 4.13482 21.6179 3.99772C20.5986 3.99574 19.5813 3.99772 18.564 3.99772V6.0403C20.9225 6.29661 23.2194 7.20464 24.9301 8.95315C26.6806 10.8447 27.0879 13.6105 27.074 16.1339C27.0402 18.5719 26.5455 21.1947 24.8705 23.0167C23.1717 24.7255 20.8986 25.7348 18.5679 26.0269V27.9841C18.5699 27.988 18.5719 27.99 18.5739 27.992C20.2151 28.5146 21.3377 29.9591 22.2319 31.3996C24.4374 35.0893 26.1859 39.0473 28.1291 42.8861C29.1961 44.9942 30.2531 47.1044 31.3122 49.2145C36.2437 49.2264 41.1733 49.2185 46.1049 49.2185C46.3076 49.2185 46.4725 49.0476 46.4725 48.837V47.8733C46.4725 47.6667 46.3155 47.5077 46.1168 47.4958Z" fill="#FFF8EE"/>
<path d="M62.0818 44.5491C61.7758 44.5929 61.4639 44.5948 61.1499 44.5432C59.2305 44.3346 58.0205 42.3615 57.7503 40.5216C57.5297 38.636 57.6549 36.51 58.855 34.9721C59.7273 33.9011 60.8698 33.2017 62.0818 32.6374V30.4776C58.855 31.8049 55.6123 33.1024 52.6041 34.9264C51.094 35.8603 49.4647 36.812 48.5925 38.4691C47.0447 41.37 47.4261 45.4313 49.8482 47.7064C52.014 49.8185 55.2587 50.3947 58.0801 49.6317C59.5902 49.2224 60.9294 48.4594 62.0818 47.4501V44.5491Z" fill="#FFF8EE"/>
<path d="M73.5067 49.9C76.3996 49.6615 79.0383 47.8077 80.6159 45.324C80.2722 44.9565 79.9265 44.5869 79.5946 44.2114C79.1575 44.7339 78.7422 45.3558 78.0707 45.5545C77.4627 45.7155 76.7493 45.5386 76.344 45.028C75.7698 44.3445 75.736 43.3828 75.73 42.5225C75.738 38.034 75.7281 33.5475 75.734 29.061C75.7499 27.1197 75.591 25.1447 74.9154 23.3187C73.6835 19.7283 70.6196 16.9327 67.0551 16.0704C63.5243 15.206 59.6557 15.363 56.3415 16.9784C52.7114 18.8878 50.0747 22.4385 48.5865 26.3249C48.511 26.5216 48.6063 26.7422 48.7951 26.8197C49.1031 26.9469 49.4091 27.078 49.7131 27.2111C49.8919 27.2886 50.0926 27.2091 50.178 27.0283C50.6946 25.9295 51.2768 24.8566 52.0477 23.9267C53.4406 22.1921 55.5567 21.0556 57.7502 21.0973C59.3994 21.0655 61.136 21.5523 62.3162 22.8061C63.9793 24.5605 64.5019 27.1297 64.3648 29.5199V31.6817C64.3648 35.5741 64.3628 39.4646 64.3648 43.357C64.3648 43.7981 64.3648 44.267 64.3648 44.6684C64.3648 44.72 64.321 47.2196 64.3548 47.2554C64.3548 47.2554 65.6563 47.2216 66.7232 48.0938C68.6605 49.5562 71.1442 50.1463 73.5067 49.9Z" fill="#FFF8EE"/>
<path d="M108.962 41.0243C108.753 40.8336 108.545 40.6448 108.332 40.4581C108.169 40.313 107.925 40.3488 107.797 40.5276C107.146 41.4456 106.397 42.296 105.509 42.9676C103.655 44.3107 101.207 44.5869 99.0569 43.9769C97.1197 43.4524 95.5162 42.0456 94.332 40.4104C92.2219 37.5075 91.292 33.8614 91.0814 30.275C90.9423 27.4516 91.135 24.4851 92.4305 21.9398C93.1418 20.533 94.2128 19.2475 95.5897 18.5322V15.6472C92.5279 15.9611 89.5395 17.1652 87.1293 19.1382C83.9244 21.7113 81.4864 25.403 80.6758 29.5637C79.9029 33.5654 80.1929 37.8989 82.0011 41.5668C83.9443 45.4413 87.5069 48.4396 91.6099 49.4529C94.6877 50.2139 98.0118 50.1503 100.978 48.9403C104.432 47.5912 107.261 44.8373 109.045 41.5111C109.129 41.3502 109.093 41.1455 108.962 41.0243Z" fill="#FFF8EE"/>
<path d="M103.323 19.8833C105.121 21.5106 106.158 23.8313 106.683 26.2157C106.722 26.3984 106.879 26.5236 107.06 26.5137C107.309 26.4978 107.557 26.4799 107.805 26.464C108.006 26.4501 108.161 26.2693 108.151 26.0607C107.992 22.8001 107.807 19.5395 107.613 16.281C107.104 16.1598 107.142 16.1697 106.633 16.0485C106.383 16.5631 106.228 17.2526 105.647 17.4791C104.885 17.7513 104.161 17.2148 103.458 16.9863C101.705 16.124 99.8059 15.6749 97.8845 15.5835V17.9222C99.8496 17.7851 101.864 18.4944 103.323 19.8833Z" fill="#FFF8EE"/>
<path d="M164.648 47.6468C163.444 47.5335 162.079 47.6249 161.089 46.8222C161.049 46.7904 161.014 46.7487 160.986 46.705C160.29 45.6261 160.374 44.2293 160.352 42.9874C160.356 34.9026 160.352 26.8197 160.354 18.7368H166.374C166.507 17.8765 166.649 17.0142 166.811 16.1598C164.662 16.3247 162.508 16.4737 160.352 16.436C160.421 12.9986 160.062 9.47372 161.029 6.13169C161.355 5.05278 161.85 3.91228 162.689 3.17115V0.0298004C162.269 0.0635784 161.852 0.105304 161.439 0.166899C157.322 0.778876 153.559 3.37183 151.329 7.00396C149.609 9.68632 148.983 12.9707 148.981 16.1558C147.737 16.5234 146.491 16.889 145.253 17.2685C145.374 18.1209 145.341 17.8824 145.462 18.7348C146.517 18.7348 147.57 18.7348 148.623 18.7368C148.826 18.7368 148.991 18.9077 148.991 19.1203C148.991 27.4158 148.991 35.7113 148.989 44.0107C148.937 44.9366 148.923 45.9221 148.52 46.7705C148.5 46.8123 148.474 46.852 148.446 46.8878C147.709 47.774 146.344 47.5097 145.422 47.7481C145.535 48.6105 145.502 48.3561 145.615 49.2185H164.58C164.624 48.217 164.604 48.6502 164.648 47.6468Z" fill="#FFF8EE"/>
<path d="M168.5 3.65795C169.899 5.41838 170.227 7.7888 170.39 9.99232C171.35 9.99033 170.988 9.99033 171.946 9.98834C172.135 7.43711 172.254 4.87992 172.387 2.32472C170.181 0.834514 167.598 0.127164 164.986 0V2.29889C166.279 2.21742 167.62 2.65654 168.5 3.65795Z" fill="#FFF8EE"/>
<path d="M196.027 41.2389C195.666 40.9389 195.306 40.6349 194.954 40.3289C193.675 42.2145 191.849 43.8259 189.618 44.2551C186.5 44.9386 183.198 43.5915 181.133 41.1217C178.189 37.8989 177.086 33.3408 177.012 28.9994L177.016 26.8912C177.183 24.3936 177.426 21.7232 178.846 19.6111C179.762 18.2043 181.543 17.4553 183.128 17.956C184.36 18.3216 185.224 19.4283 185.765 20.5867C186.705 22.5299 186.987 24.7354 187.044 26.8873C184.467 26.8912 181.89 26.8892 179.311 26.8912V29.0014C184.763 29.0053 190.216 29.0153 195.668 28.9894C195.555 25.2321 193.802 21.7232 191.36 19.0289C188.819 16.3088 185.004 15.3213 181.455 15.6054C177.926 15.8041 174.58 17.4811 172.005 19.9568C169.267 22.4743 167.253 25.8839 166.549 29.6372C165.808 33.6389 166.124 37.9863 168.061 41.5906C169.83 44.9008 172.836 47.3964 176.19 48.7952C180.41 50.4424 185.338 50.4285 189.359 48.1872C192.216 46.6652 194.47 44.1339 196.027 41.2389Z" fill="#FFF8EE"/>
<path d="M188.036 8.88161C188.032 8.84187 188.02 8.76041 188.014 8.71868C186.512 7.77091 185.006 6.80923 183.665 5.62899C183.377 5.37665 183.12 5.07464 182.771 4.90575C180.708 7.82456 178.58 10.6957 176.53 13.6205C176.629 13.6622 176.828 13.7476 176.927 13.7874C180.635 12.166 184.346 10.5447 188.036 8.88161Z" fill="#FFF8EE"/>
</svg>

