<svg width="25" height="30" viewBox="0 0 25 30" fill="none" xmlns="http://www.w3.org/2000/svg">
<path d="M23.93 5.80667L18.23 0.106667C18.16 0.04 18.0667 0 17.97 0H1.54667C0.693333 0 0 0.693333 0 1.54667V28.45C0 29.3067 0.693333 30 1.54667 30H22.4867C23.34 30 24.0333 29.3067 24.0333 28.4533V6.06667C24.0367 5.97 23.9967 5.87667 23.93 5.80667ZM18.3367 1.25L22.7867 5.7H19.15C18.7 5.7 18.3333 5.33333 18.3333 4.88333V1.25H18.3367ZM22.4867 29.27H1.54667C1.09667 29.27 0.73 28.9033 0.73 28.4533V1.54667C0.73 1.09667 1.09667 0.73 1.54667 0.73H17.6033V4.88333C17.6033 5.73667 18.2967 6.43 19.15 6.43H23.3033V28.45C23.3033 28.9033 22.9367 29.27 22.4867 29.27ZM3.52 4.51C3.52 4.30667 3.68333 4.14333 3.88667 4.14333H9.38333C9.58667 4.14333 9.75 4.30667 9.75 4.51C9.75 4.71333 9.58667 4.87667 9.38333 4.87667H3.88667C3.68667 4.87667 3.52 4.71333 3.52 4.51ZM9.75 25.49C9.75 25.6933 9.58667 25.8567 9.38333 25.8567H3.88667C3.68333 25.8567 3.52 25.6933 3.52 25.49C3.52 25.2867 3.68333 25.1233 3.88667 25.1233H9.38333C9.58667 25.1233 9.75 25.2867 9.75 25.49ZM20.5133 22.1767C20.5133 22.38 20.35 22.5433 20.1467 22.5433H3.88667C3.68333 22.5433 3.52 22.38 3.52 22.1767C3.52 21.9733 3.68333 21.81 3.88667 21.81H20.1467C20.35 21.81 20.5133 21.9733 20.5133 22.1767ZM20.5133 8.92C20.5133 9.12333 20.35 9.28667 20.1467 9.28667H3.88667C3.68333 9.28667 3.52 9.12333 3.52 8.92C3.52 8.71667 3.68333 8.55333 3.88667 8.55333H20.1467C20.35 8.55333 20.5133 8.71667 20.5133 8.92ZM20.5133 12.2333C20.5133 12.4367 20.35 12.6 20.1467 12.6H3.88667C3.68333 12.6 3.52 12.4367 3.52 12.2333C3.52 12.03 3.68333 11.8667 3.88667 11.8667H20.1467C20.35 11.8667 20.5133 12.03 20.5133 12.2333ZM20.5133 15.5467C20.5133 15.75 20.35 15.9133 20.1467 15.9133H3.88667C3.68333 15.9133 3.52 15.75 3.52 15.5467C3.52 15.3433 3.68333 15.18 3.88667 15.18H20.1467C20.35 15.18 20.5133 15.3467 20.5133 15.5467ZM20.5133 18.86C20.5133 19.0633 20.35 19.2267 20.1467 19.2267H3.88667C3.68333 19.2267 3.52 19.0633 3.52 18.86C3.52 18.6567 3.68333 18.4933 3.88667 18.4933H20.1467C20.35 18.4967 20.5133 18.66 20.5133 18.86Z" fill="#DA291C"/>
</svg>
