<svg width="100" height="100" viewBox="0 0 100 100" fill="none" xmlns="http://www.w3.org/2000/svg">
<path d="M50 97.124C24.0182 97.124 2.88173 75.9875 2.88173 50.0058C2.88173 24.024 24.0182 2.88173 50 2.88173C75.9818 2.88173 97.1183 24.0182 97.1183 50C97.1183 75.9818 75.9818 97.124 50 97.124ZM50 0C22.4301 0 0 22.4301 0 50C0 77.5699 22.4301 100 50 100C77.5699 100 100 77.5699 100 50C100.006 22.4301 77.5699 0 50 0Z" fill="#DA291C"/>
<path d="M50.0001 89.4664C28.7249 89.4664 11.3364 72.5399 10.5741 51.4438H40.7081V48.5621H10.5741C11.3364 27.466 28.7249 10.5394 50.0001 10.5394C71.2752 10.5394 88.6637 27.466 89.426 48.5621H68.2086H62.6011H59.2978V51.4438H62.6011H68.2086H89.426C88.6637 72.5399 71.281 89.4664 50.0001 89.4664ZM50.0001 7.65771C26.6517 7.65771 7.65771 26.6517 7.65771 50.0001C7.65771 73.3484 26.6517 92.3424 50.0001 92.3424C73.3484 92.3424 92.3424 73.3484 92.3424 50.0001C92.3482 26.6517 73.3484 7.65771 50.0001 7.65771Z" fill="#DA291C"/>
<path d="M41.274 34.7596C41.2625 34.8809 41.2798 34.9964 41.326 35.1061C41.4126 35.3949 41.4935 35.6663 41.557 35.932C41.6205 36.1976 41.7129 36.4517 41.8226 36.6943C42.198 37.5316 42.6947 38.2651 43.3126 38.8945C43.9305 39.524 44.6582 40.0207 45.4956 40.396C45.6919 40.4827 45.8998 40.5693 46.1077 40.6444C46.3156 40.7194 46.5408 40.7945 46.7834 40.858C46.8469 40.8811 46.922 40.8927 46.9971 40.8927C47.0721 40.8927 47.1588 40.9158 47.2454 40.962C47.4013 41.0082 47.563 41.0371 47.742 41.0602C47.9211 41.0833 48.0943 41.1121 48.2733 41.1583C48.3369 41.1814 48.4177 41.1872 48.5043 41.1757C48.591 41.1641 48.6718 41.1699 48.7353 41.193H49.2955C49.3821 41.2161 49.5092 41.2334 49.6767 41.245C49.8441 41.2565 49.9712 41.2507 50.0578 41.2276C50.2368 41.2045 50.4043 41.1872 50.5718 41.1757C50.7393 41.1641 50.9067 41.1583 51.0858 41.1583C51.1955 41.1121 51.311 41.0948 51.4323 41.0948C51.5535 41.0948 51.669 41.0717 51.7788 41.0313C52.0444 40.9678 52.2985 40.9042 52.5411 40.8465C52.7836 40.7945 53.0262 40.7194 53.2687 40.6328C54.4584 40.1477 55.4343 39.5529 56.1966 38.8483C56.9589 38.1438 57.548 37.162 57.9638 35.9089C58.01 35.7356 58.0446 35.5566 58.0793 35.3776C58.1139 35.2043 58.1486 35.0253 58.1948 34.8463C58.2179 34.7596 58.2294 34.6153 58.2294 34.4189C58.2525 34.3323 58.2699 34.211 58.2814 34.0551C58.293 33.8992 58.2872 33.7779 58.2641 33.6913C58.2179 33.5584 58.2121 33.4256 58.2468 33.2928C58.2814 33.16 58.2756 33.0387 58.2294 32.929C58.1832 32.6864 58.1428 32.4496 58.0966 32.2186C58.0504 31.9876 57.9869 31.774 57.9003 31.5718C57.5249 30.6247 56.9647 29.874 56.214 29.3254C56.0349 29.2156 55.8732 29.1174 55.7173 29.0251C55.5614 28.9384 55.4112 28.8403 55.2553 28.7305C55.0763 28.5977 54.9897 28.4764 54.9897 28.3667C54.9666 28.2801 54.9781 28.205 55.0243 28.153C55.0705 28.1011 55.1109 28.0491 55.1571 28.0029C55.3766 27.7834 55.6538 27.564 55.983 27.3387C56.0292 27.2925 56.0927 27.2059 56.1793 27.0731C56.2428 27.0096 56.3121 26.9403 56.3757 26.8767C56.4392 26.8132 56.5085 26.7324 56.572 26.6457C56.8608 26.2068 57.0918 25.664 57.265 25.0287C57.3747 24.5898 57.4209 24.0701 57.3978 23.4753C57.3747 22.8804 57.2997 22.3838 57.1668 21.9853C57.1206 21.8294 57.0687 21.685 56.9994 21.558C56.9358 21.4251 56.8781 21.2923 56.8319 21.1595C56.4796 20.3452 55.983 19.7042 55.3419 19.2422C55.2091 19.1325 55.0821 19.0285 54.9608 18.9303C54.8395 18.8322 54.7125 18.7398 54.5796 18.6474C53.9155 18.2316 53.1705 17.8851 52.3332 17.6079C51.4958 17.3307 50.5256 17.2152 49.4226 17.2614C49.2666 17.2614 49.1165 17.2671 48.9779 17.2787C48.8335 17.2902 48.6776 17.3076 48.4986 17.3307C48.2098 17.3769 47.9326 17.4173 47.6554 17.4635C47.3782 17.5097 47.1183 17.5732 46.8758 17.6598C45.7497 18.0814 44.8372 18.6243 44.1326 19.2942C43.4281 19.9698 42.8448 20.8303 42.3828 21.8871C42.2731 22.1297 42.1865 22.378 42.1172 22.6321C42.0536 22.8862 41.9843 23.1461 41.9208 23.4117C41.8746 23.5215 41.8573 23.6312 41.8573 23.7409C41.8573 23.8506 41.8342 23.9604 41.7938 24.0701C41.7476 24.2491 41.7476 24.4281 41.7938 24.6129C41.84 24.8035 41.9035 24.9306 41.9901 24.9941C42.2096 25.1731 42.5387 25.2482 42.9661 25.2251C43.3935 25.202 43.7862 25.1904 44.1384 25.1904C44.2713 25.1904 44.4156 25.1962 44.5658 25.2078C44.7217 25.2193 44.8545 25.2135 44.9643 25.1904H45.3281C45.5475 25.1442 45.6919 25.1038 45.7554 25.0576C45.9345 24.9479 46.0442 24.7862 46.0846 24.5783C46.1308 24.3704 46.1828 24.1452 46.2521 23.9026C46.3156 23.6601 46.3907 23.4291 46.4658 23.2096C46.5408 22.9902 46.6506 22.7823 46.7776 22.5801C47.153 22.0084 47.6727 21.5868 48.3311 21.327C48.4408 21.2808 48.5332 21.2577 48.6141 21.2403C48.6891 21.2288 48.7815 21.1999 48.897 21.1595C49.053 21.1133 49.2551 21.0844 49.5092 21.0613C49.7633 21.0382 49.977 21.0498 50.156 21.096C50.2657 21.1422 50.3697 21.1595 50.4678 21.1595C50.566 21.1595 50.67 21.1826 50.7797 21.223C51.594 21.4887 52.2003 21.9622 52.5988 22.6437C52.7085 22.7996 52.7836 22.9671 52.8298 23.1576C52.876 23.3424 52.9164 23.5272 52.9626 23.7005C53.0088 23.9199 53.0088 24.1625 52.9626 24.4281C52.9164 24.6938 52.876 24.8901 52.8298 25.023C52.6104 25.5947 52.3043 26.0105 51.9231 26.2646C51.5362 26.5187 51.0338 26.7324 50.4216 26.9114C50.2888 26.9576 50.1156 26.9807 49.9077 26.9923C49.6998 27.0038 49.4861 27.0211 49.2609 27.0442C49.0414 27.0673 48.8393 27.102 48.6487 27.1424C48.4639 27.1886 48.3369 27.2521 48.2676 27.3387C48.1578 27.5178 48.0943 27.7545 48.0828 28.0664C48.0712 28.3725 48.0654 28.6728 48.0654 28.9558C48.0654 29.1348 48.0712 29.2965 48.0828 29.4524C48.0943 29.6083 48.1232 29.7412 48.1636 29.8509C48.2098 29.9837 48.2849 30.0819 48.3946 30.1512C48.5043 30.2147 48.6487 30.2725 48.822 30.3129C48.8682 30.336 48.9259 30.3418 49.0068 30.3302C49.0818 30.3187 49.1569 30.3244 49.2204 30.3475H49.5207H49.6998C49.7748 30.3475 49.8499 30.3591 49.9134 30.3822C50.0925 30.4284 50.2599 30.4457 50.4274 30.4457C50.5949 30.4457 50.7508 30.4688 50.9067 30.5092C51.4785 30.6883 51.9462 30.9135 52.3101 31.1849C52.6739 31.4621 52.9626 31.849 53.1879 32.3572C53.2341 32.467 53.2629 32.5825 53.286 32.7037C53.3091 32.825 53.3322 32.9405 53.3496 33.0502C53.3496 33.0964 53.3553 33.1369 53.3669 33.1831C53.3784 33.2293 53.3842 33.2697 53.3842 33.3159C53.4304 33.4487 53.442 33.6335 53.4362 33.8761C53.4246 34.1186 53.3958 34.2919 53.3553 34.4074C53.3091 34.5864 53.2745 34.7481 53.2398 34.904C53.2052 35.0599 53.159 35.2043 53.0897 35.3314C52.9107 35.7703 52.6566 36.1399 52.3274 36.4402C51.9982 36.7405 51.6113 36.9772 51.1724 37.1505C51.0165 37.1967 50.8317 37.2371 50.6122 37.2833C50.4332 37.3526 50.2137 37.393 49.9539 37.4161C49.6882 37.4392 49.4457 37.4277 49.2262 37.3815H49.0587C48.9259 37.3353 48.7931 37.3122 48.6603 37.2949C48.5274 37.2833 48.3946 37.2544 48.2618 37.214C47.4475 36.9079 46.8411 36.4517 46.4427 35.8569C46.2636 35.6143 46.1366 35.366 46.0442 35.1119C45.9576 34.8578 45.8594 34.5806 45.7439 34.2688C45.6573 34.0262 45.5937 33.7894 45.5591 33.5584C45.5244 33.3274 45.4205 33.1542 45.2472 33.0445C45.1606 32.9809 44.9931 32.9232 44.7506 32.877H44.3868C44.2539 32.8308 44.098 32.8192 43.9247 32.825C43.7457 32.8366 43.584 32.8423 43.4281 32.8423C43.0065 32.8423 42.5676 32.8481 42.1056 32.8597C41.6436 32.8712 41.3433 33.0214 41.2105 33.3043C41.1643 33.4603 41.147 33.6393 41.147 33.8472C41.147 34.0551 41.1701 34.2399 41.2105 34.3958C41.2682 34.5229 41.2856 34.6384 41.274 34.7596Z" fill="#DA291C"/>
<path d="M49.6189 73.0134C49.6478 72.9037 49.642 72.8113 49.6074 72.7189C49.5727 72.5225 49.5381 72.3319 49.4976 72.1414C49.463 71.9566 49.411 71.7775 49.3359 71.6216C49.0356 70.8535 48.5794 70.2529 47.973 69.8025C47.8287 69.7159 47.6958 69.635 47.5746 69.5599C47.4475 69.4906 47.3262 69.4098 47.1992 69.3174C47.0548 69.2134 46.9855 69.1152 46.9855 69.0228C46.9682 68.9535 46.974 68.8958 47.0144 68.8496C47.049 68.8034 47.0837 68.763 47.1241 68.7283C47.3031 68.5493 47.5226 68.3703 47.794 68.1913C47.8287 68.1566 47.8806 68.0815 47.9557 67.9776C48.0077 67.9256 48.0654 67.8679 48.1174 67.8159C48.1694 67.7639 48.2271 67.7004 48.2791 67.6311C48.5101 67.273 48.6949 66.8399 48.8393 66.3201C48.9259 65.9621 48.9663 65.5463 48.949 65.067C48.9317 64.5876 48.8682 64.1834 48.7642 63.8658C48.7296 63.7445 48.6834 63.6232 48.6314 63.5193C48.5794 63.4095 48.5332 63.3056 48.4986 63.1959C48.2156 62.5375 47.8113 62.0178 47.2974 61.6482C47.1876 61.5615 47.0895 61.4749 46.9913 61.3941C46.8931 61.3132 46.7892 61.2381 46.6852 61.1688C46.1481 60.8281 45.5475 60.5509 44.8661 60.3257C44.1904 60.1005 43.405 60.0081 42.5157 60.0427C42.3886 60.0427 42.2731 60.0485 42.1576 60.0543C42.0421 60.0658 41.9093 60.0774 41.7707 60.0947C41.5397 60.1293 41.3145 60.164 41.0892 60.2044C40.864 60.2391 40.6561 60.291 40.4598 60.3661C39.5531 60.7068 38.8139 61.1457 38.2422 61.6886C37.6704 62.2314 37.2027 62.9302 36.8273 63.7849C36.7349 63.9813 36.6656 64.1834 36.6136 64.3855C36.5616 64.5876 36.5039 64.8013 36.4519 65.015C36.4173 65.1016 36.3999 65.194 36.3999 65.2806C36.3999 65.373 36.3826 65.4597 36.3479 65.5463C36.3133 65.6907 36.3133 65.835 36.3479 65.9852C36.3826 66.1353 36.4346 66.2393 36.5097 66.2913C36.6887 66.4356 36.9486 66.4934 37.2951 66.4761C37.6416 66.4587 37.9592 66.4472 38.2422 66.4472C38.3519 66.4472 38.4674 66.453 38.5887 66.4587C38.7157 66.4703 38.8197 66.4645 38.9121 66.4472H39.2066C39.3856 66.4125 39.5011 66.3779 39.5531 66.3375C39.6975 66.2508 39.7841 66.118 39.8187 65.9505C39.8534 65.7831 39.8996 65.5983 39.9516 65.4019C40.0035 65.2056 40.0613 65.0208 40.1248 64.8417C40.1883 64.6627 40.2692 64.4952 40.3789 64.3335C40.6792 63.8715 41.1008 63.5308 41.6321 63.3171C41.7187 63.2825 41.7996 63.2594 41.8573 63.2478C41.9208 63.2421 41.9959 63.219 42.0825 63.1843C42.2096 63.1497 42.3713 63.1208 42.5792 63.1035C42.7813 63.0861 42.9546 63.0919 43.0989 63.1323C43.1856 63.167 43.2722 63.1843 43.353 63.1843C43.4339 63.1843 43.5147 63.2016 43.6071 63.2363C44.2655 63.45 44.7564 63.8311 45.074 64.3855C45.1606 64.5126 45.2241 64.6454 45.2588 64.8013C45.2934 64.9515 45.3281 65.1016 45.3685 65.2402C45.4032 65.4192 45.4032 65.6156 45.3685 65.8293C45.3339 66.0429 45.2992 66.2046 45.2588 66.3086C45.0798 66.7706 44.8372 67.1056 44.5254 67.3077C44.2135 67.5098 43.8093 67.6888 43.3068 67.8274C43.1971 67.8621 43.0643 67.8852 42.891 67.8967C42.7236 67.9083 42.5503 67.9198 42.3713 67.9371C42.1923 67.9545 42.0306 67.9833 41.8746 68.018C41.7245 68.0526 41.6205 68.1104 41.5686 68.1797C41.4819 68.3241 41.43 68.5204 41.4242 68.7688C41.4126 69.0171 41.4126 69.2596 41.4126 69.4906C41.4126 69.635 41.4184 69.7678 41.4242 69.8891C41.4357 70.0161 41.4531 70.1201 41.4935 70.2125C41.5281 70.3165 41.5917 70.3973 41.6783 70.4551C41.7649 70.507 41.8804 70.5532 42.0248 70.5879C42.0594 70.6052 42.1114 70.611 42.1692 70.6052C42.2327 70.5937 42.2904 70.5994 42.3424 70.6168H42.585H42.7293C42.7929 70.6168 42.8506 70.6283 42.9026 70.6456C43.047 70.6803 43.1856 70.6976 43.3184 70.6976C43.4512 70.6976 43.5783 70.7149 43.7053 70.7496C44.1673 70.894 44.5485 71.073 44.843 71.2982C45.1375 71.5234 45.3743 71.8353 45.5533 72.2453C45.588 72.3377 45.6168 72.4301 45.6342 72.5283C45.6515 72.6265 45.6688 72.7189 45.6861 72.8113C45.6861 72.8459 45.6919 72.8806 45.6977 72.921C45.7035 72.9556 45.7092 72.9903 45.7092 73.0249C45.7439 73.1347 45.7554 73.2848 45.7497 73.4812C45.7381 73.6775 45.7208 73.8219 45.6804 73.9085C45.6457 74.0529 45.6111 74.1857 45.588 74.307C45.5591 74.434 45.5187 74.5495 45.4667 74.6535C45.3223 75.0115 45.1202 75.3061 44.8545 75.5486C44.5889 75.7912 44.277 75.9817 43.919 76.1261C43.7919 76.1608 43.6418 76.1954 43.4628 76.2301C43.3184 76.282 43.1394 76.3225 42.9257 76.3398C42.712 76.3571 42.5157 76.3513 42.3366 76.3109H42.2038C42.0941 76.2763 41.9901 76.2532 41.8804 76.2416C41.7707 76.2358 41.6667 76.2127 41.557 76.1723C40.8987 75.924 40.4078 75.5602 40.0902 75.0751C39.9458 74.8787 39.8418 74.6766 39.7668 74.4745C39.6975 74.2723 39.6166 74.0413 39.5242 73.793C39.4549 73.5967 39.4029 73.4061 39.3798 73.2155C39.351 73.0307 39.2701 72.8921 39.1257 72.7997C39.0564 72.7477 38.9236 72.7015 38.7273 72.6669H38.4327C38.323 72.6322 38.2017 72.6207 38.0574 72.6265C37.913 72.638 37.7802 72.638 37.6589 72.638C37.3182 72.638 36.9659 72.6438 36.5905 72.6496C36.2151 72.6611 35.9784 72.7766 35.8686 73.0076C35.834 73.1347 35.8167 73.279 35.8167 73.4465C35.8167 73.614 35.834 73.7641 35.8686 73.8854C35.9033 73.9778 35.9148 74.0702 35.9091 74.1684C35.8975 74.2666 35.9148 74.359 35.9495 74.4514C36.0188 74.6824 36.0823 74.9076 36.1343 75.1213C36.1863 75.3349 36.2555 75.5428 36.3479 75.7334C36.6483 76.4091 37.0525 77.0039 37.5491 77.5121C38.0458 78.0203 38.6349 78.4246 39.3105 78.7249C39.4722 78.7942 39.6339 78.8635 39.8072 78.927C39.9747 78.9905 40.1595 79.0483 40.3558 79.1002C40.4078 79.1176 40.4655 79.1291 40.5291 79.1291C40.5926 79.1291 40.6561 79.1464 40.7312 79.1811C40.8582 79.2157 40.9911 79.2446 41.1297 79.2619C41.274 79.2793 41.4126 79.3081 41.557 79.3428C41.609 79.3601 41.6725 79.3659 41.7418 79.3543C41.8111 79.3428 41.8746 79.3486 41.9266 79.3659H42.3828C42.4521 79.3832 42.5561 79.3948 42.6889 79.4063C42.8217 79.4121 42.9257 79.4121 42.995 79.3948C43.1394 79.3774 43.278 79.3659 43.4108 79.3543C43.5436 79.3428 43.6822 79.3428 43.8266 79.3428C43.9132 79.3081 44.0114 79.2908 44.1096 79.2908C44.2077 79.2908 44.3001 79.2735 44.3868 79.2388C44.6004 79.1869 44.8026 79.1349 45.0047 79.0945C45.201 79.0483 45.3974 78.9905 45.5937 78.9212C46.5582 78.5285 47.3436 78.0492 47.9557 77.4775C48.5679 76.9057 49.0472 76.1146 49.3879 75.0982C49.4226 74.9538 49.4572 74.8152 49.4803 74.6708C49.5092 74.5264 49.5381 74.3878 49.5727 74.2435C49.59 74.1742 49.6016 74.0587 49.6016 73.897C49.6189 73.8277 49.6305 73.7295 49.642 73.6024C49.6478 73.4754 49.6478 73.3772 49.6305 73.3079C49.6016 73.2328 49.5958 73.1231 49.6189 73.0134Z" fill="#DA291C"/>
<path d="M63.71 60.4123C63.6233 60.2679 63.4847 60.1871 63.3115 60.1697C63.1325 60.1524 62.9361 60.1409 62.7224 60.1409H60.7474H51.877C51.8423 60.1582 51.8019 60.164 51.7557 60.1524C51.7095 60.1466 51.6691 60.1466 51.6344 60.164C51.4381 60.2159 51.3052 60.3083 51.2359 60.4296C51.1666 60.5393 51.1262 60.6722 51.1262 60.8281V61.3074V62.5086V62.884C51.1262 63.011 51.1435 63.115 51.1782 63.2074C51.2128 63.3344 51.2937 63.4326 51.4207 63.5019C51.5651 63.5885 51.8192 63.6347 52.183 63.6232C52.5469 63.6174 52.8529 63.6116 53.107 63.6116H57.1958H58.2353C58.3219 63.6116 58.4201 63.6059 58.5182 63.6001C58.6164 63.5943 58.703 63.6059 58.7723 63.6405H59.0149C59.1362 63.6752 59.2459 63.7098 59.3383 63.7329C59.4249 63.7618 59.4884 63.8369 59.5231 63.9581C59.5577 64.0852 59.5115 64.218 59.3903 64.3739C59.2632 64.5241 59.1881 64.6338 59.1477 64.7089C58.9167 65.0265 58.6915 65.3499 58.4778 65.6733C58.2641 65.9967 58.0505 66.3144 57.8368 66.6378C57.4961 67.1691 57.1727 67.7177 56.8608 68.2663C56.549 68.8149 56.266 69.3867 56.0177 69.9757C55.8733 70.3338 55.7347 70.6803 55.5903 71.0152C55.4459 71.3559 55.3073 71.7024 55.1629 72.0547C55.1283 72.1413 55.0937 72.2395 55.0706 72.3377C55.0417 72.4359 55.0128 72.5283 54.9781 72.6207C54.8338 73.0307 54.7125 73.458 54.6028 73.9027C54.4931 74.3474 54.3775 74.7921 54.2563 75.2367C54.1696 75.5024 54.1119 75.7738 54.083 76.051C54.0542 76.3282 54.008 76.5996 53.9387 76.8653C53.904 76.9923 53.8867 77.1136 53.8867 77.2407C53.8867 77.3677 53.8693 77.4832 53.8347 77.5872C53.8 77.7315 53.7827 77.899 53.7943 78.0954C53.8001 78.2917 53.8347 78.4361 53.8867 78.5227C53.9733 78.6671 54.1061 78.7479 54.2736 78.7653C54.4411 78.7826 54.6259 78.7941 54.8222 78.7941H56.4797C56.624 78.7941 56.7626 78.7999 56.907 78.8057C57.0514 78.8172 57.1727 78.7999 57.2824 78.7653C57.4787 78.696 57.6 78.5978 57.6462 78.4707C57.6924 78.3495 57.7386 78.1878 57.7906 77.9914V77.6738C57.8079 77.5872 57.8137 77.5063 57.8021 77.4312C57.7906 77.3619 57.7964 77.2811 57.8137 77.1887C57.8483 76.9923 57.8772 76.8075 57.8945 76.6401C57.9119 76.4726 57.9292 76.2878 57.9465 76.0914C57.9812 76.0048 57.9985 75.9182 57.9985 75.8373C57.9985 75.7565 58.01 75.6756 58.0274 75.5832C58.0967 75.2829 58.1544 74.9884 58.1891 74.6997C58.2237 74.4167 58.2872 74.1279 58.3739 73.845C58.4258 73.614 58.4778 73.383 58.5182 73.152C58.5644 72.921 58.628 72.6784 58.7204 72.4301C58.8994 71.893 59.0726 71.3675 59.2401 70.842C59.4076 70.3164 59.6039 69.8025 59.8176 69.3058C60.4586 67.8447 61.2267 66.4934 62.1161 65.246C62.2258 65.1016 62.3413 64.963 62.4626 64.8186C62.5896 64.6742 62.7051 64.5356 62.8091 64.3913C62.861 64.3393 62.9188 64.2873 62.9823 64.2296C63.0458 64.1776 63.092 64.1141 63.1267 64.0448C63.1787 64.0101 63.2422 63.9581 63.3115 63.8831C63.3981 63.7964 63.4847 63.6983 63.5656 63.6001C63.6464 63.5019 63.71 63.398 63.7677 63.294C63.8197 63.1496 63.8486 62.9995 63.8486 62.8378V62.3296V61.2323C63.8486 61.0706 63.8428 60.9147 63.837 60.7646C63.8255 60.6202 63.785 60.4989 63.71 60.4123Z" fill="#DA291C"/>
</svg>

